<?xml version="1.0" standalone="no"?>
<!DOCTYPE svg PUBLIC "-//W3C//DTD SVG 20010904//EN"
 "http://www.w3.org/TR/2001/REC-SVG-20010904/DTD/svg10.dtd">
<svg version="1.0" xmlns="http://www.w3.org/2000/svg"
 width="512.000000pt" height="512.000000pt" viewBox="0 0 512.000000 512.000000"
 preserveAspectRatio="xMidYMid meet">

<g transform="translate(0.000000,512.000000) scale(0.100000,-0.100000)"
fill="#000000" stroke="none">
<path d="M380 5099 c-181 -47 -321 -193 -365 -381 -13 -55 -15 -337 -15 -2159
0 -2070 0 -2097 20 -2175 11 -43 35 -103 53 -132 42 -71 138 -160 209 -194
125 -61 -12 -58 2279 -58 2070 0 2097 0 2175 20 43 11 103 35 132 53 71 42
160 138 194 209 61 125 58 -12 58 2279 0 2070 0 2097 -20 2175 -11 43 -35 103
-53 132 -42 71 -138 160 -209 194 -125 61 12 58 -2283 57 -2051 0 -2102 -1
-2175 -20z m3226 -608 c22 -10 54 -35 71 -56 52 -63 63 -125 63 -353 0 -232
-14 -206 120 -217 84 -6 160 -24 206 -48 51 -26 68 -103 40 -172 -24 -57 -98
-83 -266 -93 l-105 -7 -3 -162 -2 -163 77 0 c96 -1 168 -24 197 -63 17 -22 21
-43 21 -95 -1 -127 -49 -167 -217 -180 l-93 -7 -7 -120 c-4 -66 -14 -259 -23
-430 -30 -579 -55 -900 -75 -982 -34 -133 -93 -209 -202 -262 -128 -63 -312
-65 -435 -5 -68 33 -154 117 -202 198 -61 102 -210 487 -496 1276 -224 618
-357 966 -389 1015 -55 84 -186 34 -186 -70 0 -56 100 -614 180 -1010 145
-711 230 -1211 230 -1344 -1 -348 -195 -531 -564 -531 -232 0 -358 55 -448
194 -70 108 -81 161 -86 416 l-4 225 212 -3 c231 -5 302 4 381 44 63 32 91 72
91 133 0 54 -20 100 -57 130 -54 41 -88 46 -353 46 l-252 0 0 55 c0 30 3 105
6 165 l7 110 186 0 c178 0 188 1 236 25 63 32 86 71 87 146 1 125 -97 176
-367 192 l-120 7 3 100 c5 207 46 748 78 1029 45 403 170 592 435 661 92 24
292 17 369 -13 177 -70 267 -198 398 -567 63 -179 242 -725 438 -1335 148
-464 249 -753 281 -808 65 -113 209 -79 229 53 6 43 -13 1227 -21 1251 -2 7
-50 13 -127 17 -67 3 -146 13 -175 21 -153 47 -149 236 7 284 42 13 187 32
247 32 l43 0 -2 163 -3 162 -120 6 c-185 10 -280 46 -317 119 -35 68 -13 157
45 187 57 29 91 35 242 41 l150 7 3 195 c3 226 14 280 69 340 59 66 184 90
269 51z"/>
</g>
</svg>
